<svg width="470" height="170" viewBox="0 0 470 170" fill="none" xmlns="http://www.w3.org/2000/svg">
<rect width="470" height="170" fill="#F0F8FF"/>
<g filter="url(#filter0_d)">
<path d="M47.24 82.504C48.4773 82.376 49.3307 82.056 49.8 81.544C50.312 81.032 50.568 80.1787 50.568 78.984V44.936C50.568 43.784 50.376 42.952 49.992 42.44C49.608 41.8853 49.0107 41.608 48.2 41.608H46.856L46.6 41.416L46.856 39.368C48.6907 39.112 50.5893 38.7707 52.552 38.344C54.5147 37.9173 55.7733 37.64 56.328 37.512L56.712 38.344C56.4133 38.8133 56.1147 41.0747 55.816 45.128C55.56 49.1387 55.3467 54.1947 55.176 60.296C60.04 56.968 63.24 55.304 64.776 55.304C67.5493 55.304 69.704 56.0293 71.24 57.48C72.776 58.9307 73.544 60.9573 73.544 63.56C73.544 64.4133 73.3947 66.376 73.096 69.448C72.712 74.44 72.52 77.5333 72.52 78.728C72.52 79.9653 72.6907 80.8827 73.032 81.48C73.3733 82.0347 73.9493 82.312 74.76 82.312C75.2293 82.312 75.6773 82.2907 76.104 82.248C76.5307 82.2053 76.8293 82.184 77 82.184L77.128 82.44L76.616 85.192C76.232 85.1493 75.5067 85.1067 74.44 85.064C73.3733 85.0213 72.2 85 70.92 85C69.8107 85 68.5307 85.1067 67.08 85.32C65.672 85.5333 64.7547 85.6827 64.328 85.768L64.584 83.144C65.864 82.8027 66.7813 82.312 67.336 81.672C67.8907 80.9893 68.168 80.0933 68.168 78.984L68.552 66.312C68.552 64.1787 68.0827 62.536 67.144 61.384C66.248 60.232 64.9467 59.656 63.24 59.656C61.7893 59.656 60.296 60.0613 58.76 60.872C57.2667 61.64 56.0507 62.408 55.112 63.176C54.984 68.0827 54.92 73.2667 54.92 78.728C54.92 80.0507 55.0907 80.9893 55.432 81.544C55.7733 82.056 56.3707 82.312 57.224 82.312C57.6933 82.312 58.1413 82.2907 58.568 82.248C58.9947 82.2053 59.2933 82.184 59.464 82.184L59.592 82.44L59.016 85.192C58.632 85.1493 57.8853 85.1067 56.776 85.064C55.6667 85.0213 54.472 85 53.192 85C51.784 85 50.4827 85.0213 49.288 85.064C48.0933 85.1067 47.2827 85.128 46.856 85.128L47.24 82.504ZM97.4275 66.312C97.4275 64.1787 96.9368 62.5147 95.9555 61.32C94.9742 60.1253 93.5875 59.528 91.7955 59.528C90.6008 59.528 89.2782 59.8267 87.8275 60.424C86.3768 61.0213 85.1395 61.7893 84.1155 62.728L83.7955 62.536L83.0275 59.784C85.2035 58.504 87.2728 57.4373 89.2355 56.584C91.2408 55.7307 92.6488 55.304 93.4595 55.304C96.2328 55.304 98.4088 56.0293 99.9875 57.48C101.566 58.9307 102.356 60.9573 102.356 63.56C102.356 64.4987 102.206 66.4187 101.908 69.32C101.438 74.0133 101.204 77 101.204 78.28C101.204 79.2187 101.438 79.944 101.908 80.456C102.377 80.968 103.017 81.224 103.828 81.224C104.425 81.224 105.065 81.0747 105.748 80.776C106.473 80.4773 107.113 80.0933 107.668 79.624L108.564 80.648C107.881 81.8427 107.006 82.9307 105.94 83.912C104.916 84.8507 103.934 85.4693 102.996 85.768C99.5395 85.768 97.6408 84.04 97.2995 80.584L97.0435 80.52C95.5075 82.056 94.0995 83.272 92.8195 84.168C91.5822 85.064 90.6435 85.512 90.0035 85.512C87.6142 85.512 85.6515 84.7653 84.1155 83.272C82.5795 81.7787 81.8115 79.88 81.8115 77.576C81.8115 76.3387 82.1102 75.2507 82.7075 74.312C83.3475 73.3733 84.1795 72.7547 85.2035 72.456L97.2995 69.128L97.4275 66.312ZM88.5315 74.184C87.2942 74.568 86.6755 75.464 86.6755 76.872C86.6755 78.1093 87.0808 79.1333 87.8915 79.944C88.7448 80.7547 89.8115 81.16 91.0915 81.16C91.9022 81.16 92.8408 80.8827 93.9075 80.328C95.0168 79.7307 96.0195 78.984 96.9155 78.088L97.1715 71.56L88.5315 74.184ZM119.944 85.768C118.579 85.768 117.32 85.6613 116.168 85.448C115.059 85.2773 114.184 85.0853 113.544 84.872C112.904 84.6587 112.499 84.5093 112.328 84.424L112.136 83.976C112.264 83.336 112.413 82.0133 112.584 80.008C112.755 78.0027 112.861 76.4667 112.904 75.4L115.144 75.08C115.144 77.896 115.613 79.88 116.552 81.032C117.491 82.184 119.091 82.76 121.352 82.76C122.973 82.76 124.339 82.3973 125.448 81.672C126.557 80.9467 127.112 80.0507 127.112 78.984C127.112 77.9173 126.6 76.9573 125.576 76.104C124.595 75.208 122.632 73.9707 119.688 72.392C117.256 71.1547 115.485 69.9173 114.376 68.68C113.267 67.4 112.712 65.992 112.712 64.456C112.712 62.7493 113.224 61.192 114.248 59.784C115.272 58.376 116.68 57.288 118.472 56.52C120.264 55.7093 122.269 55.304 124.488 55.304C125.512 55.304 126.493 55.3893 127.432 55.56C128.371 55.688 129.139 55.8373 129.736 56.008C130.333 56.1787 130.717 56.2853 130.888 56.328L131.016 56.648C130.931 57.0747 130.739 58.056 130.44 59.592C130.141 61.0853 129.928 62.7067 129.8 64.456L127.432 64.648C127.432 64.52 127.453 64.264 127.496 63.88C127.539 63.496 127.56 63.1333 127.56 62.792C127.56 61.256 127.133 60.1467 126.28 59.464C125.469 58.7387 124.147 58.376 122.312 58.376C120.861 58.376 119.624 58.7173 118.6 59.4C117.619 60.0827 117.128 60.9147 117.128 61.896C117.128 62.92 117.555 63.88 118.408 64.776C119.304 65.672 120.733 66.632 122.696 67.656C126.152 69.4907 128.499 71.0267 129.736 72.264C131.016 73.5013 131.656 74.9307 131.656 76.552C131.656 78.1733 131.101 79.688 129.992 81.096C128.925 82.504 127.496 83.6347 125.704 84.488C123.912 85.3413 121.992 85.768 119.944 85.768ZM136.99 82.504C138.227 82.376 139.081 82.056 139.55 81.544C140.062 81.032 140.318 80.1787 140.318 78.984V44.936C140.318 43.784 140.126 42.952 139.742 42.44C139.358 41.8853 138.761 41.608 137.95 41.608H136.606L136.35 41.416L136.606 39.368C138.441 39.112 140.339 38.7707 142.302 38.344C144.265 37.9173 145.523 37.64 146.078 37.512L146.462 38.344C146.163 38.8133 145.865 41.0747 145.566 45.128C145.31 49.1387 145.097 54.1947 144.926 60.296C149.79 56.968 152.99 55.304 154.526 55.304C157.299 55.304 159.454 56.0293 160.99 57.48C162.526 58.9307 163.294 60.9573 163.294 63.56C163.294 64.4133 163.145 66.376 162.846 69.448C162.462 74.44 162.27 77.5333 162.27 78.728C162.27 79.9653 162.441 80.8827 162.782 81.48C163.123 82.0347 163.699 82.312 164.51 82.312C164.979 82.312 165.427 82.2907 165.854 82.248C166.281 82.2053 166.579 82.184 166.75 82.184L166.878 82.44L166.366 85.192C165.982 85.1493 165.257 85.1067 164.19 85.064C163.123 85.0213 161.95 85 160.67 85C159.561 85 158.281 85.1067 156.83 85.32C155.422 85.5333 154.505 85.6827 154.078 85.768L154.334 83.144C155.614 82.8027 156.531 82.312 157.086 81.672C157.641 80.9893 157.918 80.0933 157.918 78.984L158.302 66.312C158.302 64.1787 157.833 62.536 156.894 61.384C155.998 60.232 154.697 59.656 152.99 59.656C151.539 59.656 150.046 60.0613 148.51 60.872C147.017 61.64 145.801 62.408 144.862 63.176C144.734 68.0827 144.67 73.2667 144.67 78.728C144.67 80.0507 144.841 80.9893 145.182 81.544C145.523 82.056 146.121 82.312 146.974 82.312C147.443 82.312 147.891 82.2907 148.318 82.248C148.745 82.2053 149.043 82.184 149.214 82.184L149.342 82.44L148.766 85.192C148.382 85.1493 147.635 85.1067 146.526 85.064C145.417 85.0213 144.222 85 142.942 85C141.534 85 140.233 85.0213 139.038 85.064C137.843 85.1067 137.033 85.128 136.606 85.128L136.99 82.504ZM183.53 76.68C182.463 76.68 181.247 76.5307 179.882 76.232C178.9 76.7867 178.196 77.2987 177.77 77.768C177.386 78.1947 177.194 78.6427 177.194 79.112C177.194 80.0933 177.855 80.776 179.178 81.16C180.5 81.544 182.57 81.9067 185.385 82.248C188.159 82.5893 190.399 82.952 192.106 83.336C193.812 83.6773 195.284 84.3173 196.522 85.256C197.759 86.1947 198.378 87.496 198.378 89.16C198.378 91.0373 197.61 92.8507 196.074 94.6C194.538 96.3493 192.532 97.7573 190.058 98.824C187.583 99.9333 185.044 100.488 182.442 100.488C179.412 100.488 177.044 99.7413 175.338 98.248C173.674 96.7547 172.842 94.664 172.842 91.976C173.396 91.208 174.25 90.2907 175.402 89.224C176.596 88.2 177.855 87.1973 179.178 86.216V85.832C176.916 85.448 175.188 84.7227 173.994 83.656C172.799 82.5467 172.202 81.1813 172.202 79.56C173.823 78.024 175.615 76.6587 177.578 75.464V75.208C176.127 74.44 174.975 73.3093 174.122 71.816C173.268 70.3227 172.842 68.68 172.842 66.888C172.842 64.84 173.375 62.92 174.442 61.128C175.551 59.336 177.002 57.928 178.794 56.904C180.628 55.8373 182.612 55.304 184.746 55.304C185.727 55.304 186.943 55.432 188.394 55.688C189.46 55.9013 190.335 56.008 191.018 56.008C192.81 55.7947 195.754 55.1547 199.85 54.088L200.042 54.344L199.338 57.928C197.631 58.184 195.796 58.376 193.834 58.504L193.578 58.824C195.284 60.7013 196.138 62.8773 196.138 65.352C196.138 67.4 195.562 69.2987 194.41 71.048C193.3 72.7973 191.786 74.184 189.866 75.208C187.946 76.1893 185.834 76.68 183.53 76.68ZM185.002 73.864C186.964 73.864 188.5 73.2453 189.61 72.008C190.762 70.7707 191.338 69.064 191.338 66.888C191.338 64.4133 190.655 62.408 189.29 60.872C187.924 59.336 186.154 58.568 183.978 58.568C182.015 58.568 180.458 59.208 179.306 60.488C178.196 61.768 177.642 63.496 177.642 65.672C177.642 68.104 178.324 70.088 179.69 71.624C181.055 73.1173 182.826 73.864 185.002 73.864ZM184.746 97.352C186.41 97.352 187.967 97.0533 189.418 96.456C190.911 95.9013 192.084 95.112 192.938 94.088C193.834 93.1067 194.282 92.0613 194.282 90.952C194.282 90.0987 193.94 89.416 193.258 88.904C192.575 88.392 191.359 87.944 189.61 87.56C187.903 87.176 185.343 86.7707 181.93 86.344C180.82 87.0693 179.882 88.0293 179.114 89.224C178.346 90.4187 177.962 91.528 177.962 92.552C177.962 94.0027 178.58 95.1547 179.818 96.008C181.098 96.904 182.74 97.352 184.746 97.352ZM208.292 69.512C208.292 73.096 209.145 75.976 210.852 78.152C212.601 80.328 214.905 81.416 217.764 81.416C218.958 81.416 220.132 81.2667 221.284 80.968C222.436 80.6693 223.396 80.3707 224.164 80.072C224.932 79.7307 225.422 79.5173 225.636 79.432L226.02 79.56L226.724 81.416C226.425 81.6293 225.721 82.0987 224.612 82.824C223.545 83.5067 222.286 84.168 220.836 84.808C219.385 85.448 218.084 85.768 216.932 85.768C214.286 85.768 211.94 85.192 209.892 84.04C207.844 82.8453 206.265 81.1813 205.156 79.048C204.046 76.872 203.492 74.3973 203.492 71.624C203.492 68.7653 204.132 66.0773 205.411 63.56C206.734 61.0427 208.484 59.0373 210.66 57.544C212.836 56.0507 215.161 55.304 217.635 55.304C220.75 55.304 223.118 56.0933 224.74 57.672C226.361 59.2507 227.172 61.5547 227.172 64.584C227.172 65.2667 227.108 65.928 226.98 66.568C226.894 67.1653 226.83 67.5493 226.788 67.72L225.956 68.488H208.292V69.512ZM220.132 65.544C220.772 65.4587 221.198 65.3093 221.412 65.096C221.625 64.8827 221.732 64.456 221.732 63.816C221.732 62.1093 221.262 60.808 220.324 59.912C219.428 59.016 218.126 58.568 216.42 58.568C214.414 58.568 212.686 59.2507 211.236 60.616C209.828 61.9813 208.932 63.816 208.548 66.12L220.132 65.544ZM250.675 83.144C251.955 82.8027 252.872 82.312 253.427 81.672C253.982 80.9893 254.259 80.0933 254.259 78.984L254.515 66.312C254.515 64.1787 254.046 62.536 253.107 61.384C252.211 60.232 250.91 59.656 249.203 59.656C247.838 59.656 246.451 60.0187 245.043 60.744C243.635 61.4267 242.398 62.1733 241.331 62.984C240.947 71.816 240.755 77.064 240.755 78.728C240.755 80.0507 240.926 80.9893 241.267 81.544C241.608 82.056 242.206 82.312 243.059 82.312C243.528 82.312 243.976 82.2907 244.403 82.248C244.83 82.2053 245.128 82.184 245.299 82.184L245.427 82.44L244.851 85.192C244.467 85.1493 243.72 85.1067 242.611 85.064C241.502 85.0213 240.307 85 239.027 85C237.918 85 236.68 85.0427 235.315 85.128C233.992 85.256 233.118 85.3413 232.691 85.384L233.011 82.76C234.248 82.5467 235.123 82.1627 235.635 81.608C236.147 81.0533 236.403 80.1787 236.403 78.984V63.368C236.403 61.9173 236.168 60.9147 235.699 60.36C235.23 59.7627 234.419 59.464 233.267 59.464H232.563L232.371 59.208L232.563 57.096C234.398 56.7973 236.211 56.456 238.003 56.072C239.838 55.6453 241.011 55.368 241.523 55.24L241.907 55.752C241.822 56.008 241.694 56.5627 241.523 57.416C241.352 58.2267 241.246 59.08 241.203 59.976L241.331 60.168C246.195 56.9253 249.331 55.304 250.739 55.304C253.427 55.304 255.56 56.0507 257.139 57.544C258.718 59.0373 259.507 61.0427 259.507 63.56C259.507 63.9867 259.379 65.9493 259.123 69.448C258.782 73.8853 258.611 76.9787 258.611 78.728C258.611 79.9653 258.782 80.8827 259.123 81.48C259.464 82.0347 260.04 82.312 260.851 82.312C261.32 82.312 261.768 82.2907 262.195 82.248C262.622 82.2053 262.92 82.184 263.091 82.184L263.219 82.44L262.707 85.192C262.323 85.1493 261.598 85.1067 260.531 85.064C259.464 85.0213 258.291 85 257.011 85C255.902 85 254.622 85.1067 253.171 85.32C251.763 85.5333 250.846 85.6827 250.419 85.768L250.675 83.144ZM272.917 69.512C272.917 73.096 273.77 75.976 275.477 78.152C277.226 80.328 279.53 81.416 282.389 81.416C283.583 81.416 284.757 81.2667 285.909 80.968C287.061 80.6693 288.021 80.3707 288.789 80.072C289.557 79.7307 290.047 79.5173 290.261 79.432L290.645 79.56L291.349 81.416C291.05 81.6293 290.346 82.0987 289.237 82.824C288.17 83.5067 286.911 84.168 285.461 84.808C284.01 85.448 282.709 85.768 281.557 85.768C278.911 85.768 276.565 85.192 274.517 84.04C272.469 82.8453 270.89 81.1813 269.781 79.048C268.671 76.872 268.117 74.3973 268.117 71.624C268.117 68.7653 268.757 66.0773 270.036 63.56C271.359 61.0427 273.109 59.0373 275.285 57.544C277.461 56.0507 279.786 55.304 282.26 55.304C285.375 55.304 287.743 56.0933 289.365 57.672C290.986 59.2507 291.797 61.5547 291.797 64.584C291.797 65.2667 291.733 65.928 291.605 66.568C291.519 67.1653 291.455 67.5493 291.413 67.72L290.581 68.488H272.917V69.512ZM284.757 65.544C285.397 65.4587 285.823 65.3093 286.037 65.096C286.25 64.8827 286.357 64.456 286.357 63.816C286.357 62.1093 285.887 60.808 284.949 59.912C284.053 59.016 282.751 58.568 281.045 58.568C279.039 58.568 277.311 59.2507 275.861 60.616C274.453 61.9813 273.557 63.816 273.173 66.12L284.757 65.544ZM298.276 82.696C299.556 82.568 300.409 82.1627 300.836 81.48C301.263 80.7547 301.476 79.3893 301.476 77.384V63.304C301.476 61.896 301.284 60.8933 300.9 60.296C300.516 59.6987 299.897 59.4 299.044 59.4C298.703 59.4 298.404 59.4213 298.148 59.464C297.935 59.5067 297.785 59.5493 297.7 59.592L297.38 59.144L297.572 57.16C299.193 56.8613 300.9 56.4987 302.692 56.072C304.527 55.6453 305.7 55.368 306.212 55.24L306.66 55.624C306.575 56.008 306.447 56.904 306.276 58.312C306.105 59.6773 306.041 60.9787 306.084 62.216L306.34 62.408C307.62 60.4027 309.113 58.76 310.82 57.48C312.569 56.2 314.084 55.56 315.364 55.56C315.961 55.56 316.409 55.6027 316.708 55.688C317.049 55.7307 317.263 55.7733 317.348 55.816L317.54 56.072C317.455 56.6693 317.263 57.9493 316.964 59.912C316.708 61.832 316.559 63.6027 316.516 65.224L314.02 65.416C314.02 63.6667 313.892 62.5147 313.636 61.96C313.423 61.3627 312.975 61.064 312.292 61.064C311.353 61.064 310.351 61.4693 309.284 62.28C308.217 63.048 307.236 64.0933 306.34 65.416C306.297 66.6533 306.212 68.7013 306.084 71.56C305.956 74.4187 305.871 76.7227 305.828 78.472C305.828 79.9227 306.041 80.904 306.468 81.416C306.895 81.928 307.705 82.184 308.9 82.184C309.455 82.184 310.009 82.1627 310.564 82.12C311.119 82.0773 311.503 82.056 311.716 82.056L311.78 82.312L311.204 85.128C310.777 85.128 309.924 85.1067 308.644 85.064C307.364 85.0213 306.041 85 304.676 85C303.097 85 301.668 85.0213 300.388 85.064C299.108 85.1493 298.297 85.2133 297.956 85.256L298.276 82.696ZM336.615 66.312C336.615 64.1787 336.124 62.5147 335.143 61.32C334.162 60.1253 332.775 59.528 330.983 59.528C329.788 59.528 328.466 59.8267 327.015 60.424C325.564 61.0213 324.327 61.7893 323.303 62.728L322.983 62.536L322.215 59.784C324.391 58.504 326.46 57.4373 328.423 56.584C330.428 55.7307 331.836 55.304 332.647 55.304C335.42 55.304 337.596 56.0293 339.175 57.48C340.754 58.9307 341.543 60.9573 341.543 63.56C341.543 64.4987 341.394 66.4187 341.095 69.32C340.626 74.0133 340.391 77 340.391 78.28C340.391 79.2187 340.626 79.944 341.095 80.456C341.564 80.968 342.204 81.224 343.015 81.224C343.612 81.224 344.252 81.0747 344.935 80.776C345.66 80.4773 346.3 80.0933 346.855 79.624L347.751 80.648C347.068 81.8427 346.194 82.9307 345.127 83.912C344.103 84.8507 343.122 85.4693 342.183 85.768C338.727 85.768 336.828 84.04 336.487 80.584L336.231 80.52C334.695 82.056 333.287 83.272 332.007 84.168C330.77 85.064 329.831 85.512 329.191 85.512C326.802 85.512 324.839 84.7653 323.303 83.272C321.767 81.7787 320.999 79.88 320.999 77.576C320.999 76.3387 321.298 75.2507 321.895 74.312C322.535 73.3733 323.367 72.7547 324.391 72.456L336.487 69.128L336.615 66.312ZM327.719 74.184C326.482 74.568 325.863 75.464 325.863 76.872C325.863 78.1093 326.268 79.1333 327.079 79.944C327.932 80.7547 328.999 81.16 330.279 81.16C331.09 81.16 332.028 80.8827 333.095 80.328C334.204 79.7307 335.207 78.984 336.103 78.088L336.359 71.56L327.719 74.184ZM353.436 62.28C353.436 61.128 353.18 60.3173 352.668 59.848C352.156 59.3787 351.196 59.1227 349.788 59.08L349.532 58.696L349.852 56.776C351.089 56.1787 352.284 55.4533 353.436 54.6C354.63 53.704 355.59 52.936 356.316 52.296C357.084 51.6133 357.574 51.1653 357.788 50.952L359.068 51.464C359.025 51.6773 358.961 52.1893 358.876 53C358.79 53.8107 358.684 54.8987 358.556 56.264L367.964 56.072L368.156 56.264L367.58 59.656L358.3 59.464C358.001 64.1573 357.852 69.4907 357.852 75.464C357.852 77.64 358.214 79.176 358.94 80.072C359.708 80.968 361.009 81.416 362.844 81.416C363.484 81.416 364.124 81.3307 364.764 81.16C365.404 80.9893 365.937 80.8187 366.364 80.648C366.79 80.4347 367.068 80.3067 367.196 80.264L367.836 81.928C367.58 82.1413 367.025 82.5467 366.172 83.144C365.361 83.7413 364.465 84.3387 363.484 84.936C362.545 85.4907 361.841 85.768 361.372 85.768C358.47 85.768 356.422 85.192 355.228 84.04C354.033 82.8453 353.436 80.84 353.436 78.024V62.28ZM383.408 85.768C380.976 85.768 378.821 85.1707 376.944 83.976C375.066 82.7813 373.594 81.1173 372.528 78.984C371.504 76.808 370.992 74.3333 370.992 71.56C370.992 68.5733 371.632 65.8427 372.911 63.368C374.234 60.8507 376.026 58.888 378.288 57.48C380.549 56.0293 383.066 55.304 385.84 55.304C388.229 55.304 390.362 55.9013 392.24 57.096C394.16 58.2907 395.632 59.976 396.656 62.152C397.722 64.2853 398.256 66.7387 398.256 69.512C398.256 72.4987 397.594 75.2507 396.272 77.768C394.992 80.2427 393.221 82.2053 390.96 83.656C388.698 85.064 386.181 85.768 383.408 85.768ZM385.2 82.632C387.589 82.632 389.488 81.672 390.896 79.752C392.304 77.7893 393.008 75.144 393.008 71.816C393.008 69.2987 392.624 67.0587 391.856 65.096C391.088 63.0907 390 61.5333 388.592 60.424C387.226 59.3147 385.669 58.76 383.92 58.76C381.53 58.76 379.632 59.7413 378.224 61.704C376.816 63.6667 376.112 66.3333 376.112 69.704C376.112 72.2213 376.496 74.4613 377.264 76.424C378.032 78.3867 379.098 79.9227 380.464 81.032C381.829 82.0987 383.408 82.632 385.2 82.632ZM404.339 82.696C405.619 82.568 406.472 82.1627 406.899 81.48C407.325 80.7547 407.539 79.3893 407.539 77.384V63.304C407.539 61.896 407.347 60.8933 406.963 60.296C406.579 59.6987 405.96 59.4 405.107 59.4C404.765 59.4 404.467 59.4213 404.211 59.464C403.997 59.5067 403.848 59.5493 403.763 59.592L403.443 59.144L403.635 57.16C405.256 56.8613 406.963 56.4987 408.755 56.072C410.589 55.6453 411.763 55.368 412.275 55.24L412.723 55.624C412.637 56.008 412.509 56.904 412.339 58.312C412.168 59.6773 412.104 60.9787 412.147 62.216L412.403 62.408C413.683 60.4027 415.176 58.76 416.883 57.48C418.632 56.2 420.147 55.56 421.427 55.56C422.024 55.56 422.472 55.6027 422.771 55.688C423.112 55.7307 423.325 55.7733 423.411 55.816L423.603 56.072C423.517 56.6693 423.325 57.9493 423.027 59.912C422.771 61.832 422.621 63.6027 422.579 65.224L420.083 65.416C420.083 63.6667 419.955 62.5147 419.699 61.96C419.485 61.3627 419.037 61.064 418.355 61.064C417.416 61.064 416.413 61.4693 415.347 62.28C414.28 63.048 413.299 64.0933 412.403 65.416C412.36 66.6533 412.275 68.7013 412.147 71.56C412.019 74.4187 411.933 76.7227 411.891 78.472C411.891 79.9227 412.104 80.904 412.531 81.416C412.957 81.928 413.768 82.184 414.963 82.184C415.517 82.184 416.072 82.1627 416.627 82.12C417.181 82.0773 417.565 82.056 417.779 82.056L417.843 82.312L417.267 85.128C416.84 85.128 415.987 85.1067 414.707 85.064C413.427 85.0213 412.104 85 410.739 85C409.16 85 407.731 85.0213 406.451 85.064C405.171 85.1493 404.36 85.2133 404.019 85.256L404.339 82.696Z" fill="#115666"/>
</g>
<path d="M54.536 95.312L55.832 88.64L59.336 88.304L59.864 88.592L58.376 95.312H60.632L62.888 95.36L64.184 88.64L67.688 88.304L68.216 88.592L66.728 95.312L71.384 95.216L71.624 95.792L70.952 99.152H65.96L65.72 100.496L65.096 103.616L69.752 103.568L69.992 104.144L69.32 107.456H64.424L63.176 113.888L59.768 114.416L59.288 114.032L60.632 107.456L57.944 107.408L56.12 107.456L54.872 113.888L51.464 114.416L50.984 114.032L52.328 107.456L47.72 107.504L47.432 106.928L48.152 103.616L53 103.664L53.48 101.168L53.912 99.152H49.352L49.064 98.624L49.784 95.264L54.536 95.312ZM58.856 103.664L61.304 103.712L61.832 101.168L62.216 99.104H57.656L57.368 100.496L56.744 103.664H58.856ZM79.8016 95.312L81.0976 88.64L84.6016 88.304L85.1296 88.592L83.6416 95.312H85.8976L88.1536 95.36L89.4496 88.64L92.9536 88.304L93.4816 88.592L91.9936 95.312L96.6496 95.216L96.8896 95.792L96.2176 99.152H91.2256L90.9856 100.496L90.3616 103.616L95.0176 103.568L95.2576 104.144L94.5856 107.456H89.6896L88.4416 113.888L85.0336 114.416L84.5536 114.032L85.8976 107.456L83.2096 107.408L81.3856 107.456L80.1376 113.888L76.7296 114.416L76.2496 114.032L77.5936 107.456L72.9856 107.504L72.6976 106.928L73.4176 103.616L78.2656 103.664L78.7456 101.168L79.1776 99.152H74.6176L74.3296 98.624L75.0496 95.264L79.8016 95.312ZM84.1216 103.664L86.5696 103.712L87.0976 101.168L87.4816 99.104H82.9216L82.6336 100.496L82.0096 103.664H84.1216ZM105.067 95.312L106.363 88.64L109.867 88.304L110.395 88.592L108.907 95.312H111.163L113.419 95.36L114.715 88.64L118.219 88.304L118.747 88.592L117.259 95.312L121.915 95.216L122.155 95.792L121.483 99.152H116.491L116.251 100.496L115.627 103.616L120.283 103.568L120.523 104.144L119.851 107.456H114.955L113.707 113.888L110.299 114.416L109.819 114.032L111.163 107.456L108.475 107.408L106.651 107.456L105.403 113.888L101.995 114.416L101.515 114.032L102.859 107.456L98.2513 107.504L97.9633 106.928L98.6833 103.616L103.531 103.664L104.011 101.168L104.443 99.152H99.8833L99.5953 98.624L100.315 95.264L105.067 95.312ZM109.387 103.664L111.835 103.712L112.363 101.168L112.747 99.104H108.187L107.899 100.496L107.275 103.664H109.387ZM130.333 95.312L131.629 88.64L135.133 88.304L135.661 88.592L134.173 95.312H136.429L138.685 95.36L139.981 88.64L143.485 88.304L144.013 88.592L142.525 95.312L147.181 95.216L147.421 95.792L146.749 99.152H141.757L141.517 100.496L140.893 103.616L145.549 103.568L145.789 104.144L145.117 107.456H140.221L138.973 113.888L135.565 114.416L135.085 114.032L136.429 107.456L133.741 107.408L131.917 107.456L130.669 113.888L127.261 114.416L126.781 114.032L128.125 107.456L123.517 107.504L123.229 106.928L123.949 103.616L128.797 103.664L129.277 101.168L129.709 99.152H125.149L124.861 98.624L125.581 95.264L130.333 95.312ZM134.653 103.664L137.101 103.712L137.629 101.168L138.013 99.104H133.453L133.165 100.496L132.541 103.664H134.653ZM155.599 95.312L156.895 88.64L160.398 88.304L160.927 88.592L159.439 95.312H161.695L163.951 95.36L165.247 88.64L168.751 88.304L169.279 88.592L167.791 95.312L172.447 95.216L172.687 95.792L172.015 99.152H167.023L166.783 100.496L166.159 103.616L170.815 103.568L171.055 104.144L170.383 107.456H165.487L164.239 113.888L160.831 114.416L160.351 114.032L161.695 107.456L159.007 107.408L157.183 107.456L155.935 113.888L152.527 114.416L152.047 114.032L153.391 107.456L148.783 107.504L148.495 106.928L149.215 103.616L154.062 103.664L154.543 101.168L154.975 99.152H150.415L150.127 98.624L150.847 95.264L155.599 95.312ZM159.919 103.664L162.367 103.712L162.895 101.168L163.279 99.104H158.719L158.431 100.496L157.807 103.664H159.919ZM205.895 95.312L207.191 88.64L210.695 88.304L211.223 88.592L209.735 95.312H211.991L214.247 95.36L215.543 88.64L219.047 88.304L219.575 88.592L218.087 95.312L222.743 95.216L222.983 95.792L222.311 99.152H217.319L217.079 100.496L216.455 103.616L221.111 103.568L221.351 104.144L220.679 107.456H215.783L214.535 113.888L211.127 114.416L210.647 114.032L211.991 107.456L209.303 107.408L207.479 107.456L206.231 113.888L202.823 114.416L202.343 114.032L203.687 107.456L199.079 107.504L198.791 106.928L199.511 103.616L204.359 103.664L204.839 101.168L205.271 99.152H200.711L200.423 98.624L201.143 95.264L205.895 95.312ZM210.215 103.664L212.663 103.712L213.191 101.168L213.575 99.104H209.015L208.727 100.496L208.103 103.664H210.215ZM231.161 95.312L232.457 88.64L235.961 88.304L236.489 88.592L235.001 95.312H237.257L239.513 95.36L240.809 88.64L244.313 88.304L244.841 88.592L243.353 95.312L248.009 95.216L248.249 95.792L247.577 99.152H242.585L242.345 100.496L241.721 103.616L246.377 103.568L246.617 104.144L245.945 107.456H241.049L239.801 113.888L236.393 114.416L235.913 114.032L237.257 107.456L234.569 107.408L232.745 107.456L231.497 113.888L228.089 114.416L227.609 114.032L228.953 107.456L224.345 107.504L224.057 106.928L224.777 103.616L229.625 103.664L230.105 101.168L230.537 99.152H225.977L225.689 98.624L226.409 95.264L231.161 95.312ZM235.481 103.664L237.929 103.712L238.457 101.168L238.841 99.104H234.281L233.993 100.496L233.369 103.664H235.481ZM256.427 95.312L257.723 88.64L261.227 88.304L261.755 88.592L260.267 95.312H262.523L264.779 95.36L266.075 88.64L269.579 88.304L270.107 88.592L268.619 95.312L273.275 95.216L273.515 95.792L272.843 99.152H267.851L267.611 100.496L266.987 103.616L271.643 103.568L271.883 104.144L271.211 107.456H266.315L265.067 113.888L261.659 114.416L261.179 114.032L262.523 107.456L259.835 107.408L258.011 107.456L256.763 113.888L253.355 114.416L252.875 114.032L254.219 107.456L249.611 107.504L249.323 106.928L250.043 103.616L254.891 103.664L255.371 101.168L255.803 99.152H251.243L250.955 98.624L251.675 95.264L256.427 95.312ZM260.747 103.664L263.195 103.712L263.723 101.168L264.107 99.104H259.547L259.259 100.496L258.635 103.664H260.747ZM281.692 95.312L282.988 88.64L286.492 88.304L287.02 88.592L285.532 95.312H287.788L290.044 95.36L291.34 88.64L294.844 88.304L295.372 88.592L293.884 95.312L298.54 95.216L298.78 95.792L298.108 99.152H293.116L292.876 100.496L292.252 103.616L296.908 103.568L297.148 104.144L296.476 107.456H291.58L290.332 113.888L286.924 114.416L286.444 114.032L287.788 107.456L285.1 107.408L283.276 107.456L282.028 113.888L278.62 114.416L278.14 114.032L279.484 107.456L274.876 107.504L274.588 106.928L275.308 103.616L280.156 103.664L280.636 101.168L281.068 99.152H276.508L276.22 98.624L276.94 95.264L281.692 95.312ZM286.012 103.664L288.46 103.712L288.988 101.168L289.372 99.104H284.812L284.524 100.496L283.9 103.664H286.012ZM306.958 95.312L308.254 88.64L311.758 88.304L312.286 88.592L310.798 95.312H313.054L315.31 95.36L316.606 88.64L320.11 88.304L320.638 88.592L319.15 95.312L323.806 95.216L324.046 95.792L323.374 99.152H318.382L318.142 100.496L317.518 103.616L322.174 103.568L322.414 104.144L321.742 107.456H316.846L315.598 113.888L312.19 114.416L311.71 114.032L313.054 107.456L310.366 107.408L308.542 107.456L307.294 113.888L303.886 114.416L303.406 114.032L304.75 107.456L300.142 107.504L299.854 106.928L300.574 103.616L305.422 103.664L305.902 101.168L306.334 99.152H301.774L301.486 98.624L302.206 95.264L306.958 95.312ZM311.278 103.664L313.726 103.712L314.254 101.168L314.638 99.104H310.078L309.79 100.496L309.166 103.664H311.278ZM332.224 95.312L333.52 88.64L337.023 88.304L337.552 88.592L336.064 95.312H338.32L340.576 95.36L341.872 88.64L345.376 88.304L345.904 88.592L344.416 95.312L349.072 95.216L349.312 95.792L348.64 99.152H343.648L343.408 100.496L342.784 103.616L347.44 103.568L347.68 104.144L347.008 107.456H342.112L340.864 113.888L337.456 114.416L336.976 114.032L338.32 107.456L335.632 107.408L333.808 107.456L332.56 113.888L329.152 114.416L328.672 114.032L330.016 107.456L325.408 107.504L325.12 106.928L325.84 103.616L330.688 103.664L331.168 101.168L331.6 99.152H327.04L326.752 98.624L327.472 95.264L332.224 95.312ZM336.544 103.664L338.992 103.712L339.52 101.168L339.904 99.104H335.344L335.056 100.496L334.432 103.664H336.544ZM357.489 95.312L358.785 88.64L362.289 88.304L362.817 88.592L361.329 95.312H363.585L365.841 95.36L367.137 88.64L370.641 88.304L371.169 88.592L369.681 95.312L374.337 95.216L374.577 95.792L373.905 99.152H368.913L368.673 100.496L368.049 103.616L372.705 103.568L372.945 104.144L372.273 107.456H367.377L366.129 113.888L362.721 114.416L362.241 114.032L363.585 107.456L360.897 107.408L359.073 107.456L357.825 113.888L354.417 114.416L353.937 114.032L355.281 107.456L350.673 107.504L350.385 106.928L351.105 103.616L355.953 103.664L356.433 101.168L356.865 99.152H352.305L352.017 98.624L352.737 95.264L357.489 95.312ZM361.809 103.664L364.257 103.712L364.785 101.168L365.169 99.104H360.609L360.321 100.496L359.697 103.664H361.809ZM382.755 95.312L384.051 88.64L387.555 88.304L388.083 88.592L386.595 95.312H388.851L391.107 95.36L392.403 88.64L395.907 88.304L396.435 88.592L394.947 95.312L399.603 95.216L399.843 95.792L399.171 99.152H394.179L393.939 100.496L393.315 103.616L397.971 103.568L398.211 104.144L397.539 107.456H392.643L391.395 113.888L387.987 114.416L387.507 114.032L388.851 107.456L386.163 107.408L384.339 107.456L383.091 113.888L379.683 114.416L379.203 114.032L380.547 107.456L375.939 107.504L375.651 106.928L376.371 103.616L381.219 103.664L381.699 101.168L382.131 99.152H377.571L377.283 98.624L378.003 95.264L382.755 95.312ZM387.075 103.664L389.523 103.712L390.051 101.168L390.435 99.104H385.875L385.587 100.496L384.963 103.664H387.075ZM408.02 95.312L409.316 88.64L412.82 88.304L413.348 88.592L411.86 95.312H414.116L416.372 95.36L417.668 88.64L421.172 88.304L421.7 88.592L420.212 95.312L424.868 95.216L425.108 95.792L424.436 99.152H419.444L419.204 100.496L418.58 103.616L423.236 103.568L423.476 104.144L422.804 107.456H417.908L416.66 113.888L413.252 114.416L412.772 114.032L414.116 107.456L411.428 107.408L409.604 107.456L408.356 113.888L404.948 114.416L404.468 114.032L405.812 107.456L401.204 107.504L400.916 106.928L401.636 103.616L406.484 103.664L406.964 101.168L407.396 99.152H402.836L402.548 98.624L403.268 95.264L408.02 95.312ZM412.34 103.664L414.788 103.712L415.316 101.168L415.7 99.104H411.14L410.852 100.496L410.228 103.664H412.34Z" fill="#115666"/>
<defs>
<filter id="filter0_d" x="46.6" y="37.512" width="381.003" height="62.976" filterUnits="userSpaceOnUse" color-interpolation-filters="sRGB">
<feFlood flood-opacity="0" result="BackgroundImageFix"/>
<feColorMatrix in="SourceAlpha" type="matrix" values="0 0 0 0 0 0 0 0 0 0 0 0 0 0 0 0 0 0 127 0"/>
<feOffset dx="4"/>
<feColorMatrix type="matrix" values="0 0 0 0 0.0666667 0 0 0 0 0.337255 0 0 0 0 0.4 0 0 0 0.2 0"/>
<feBlend mode="normal" in2="BackgroundImageFix" result="effect1_dropShadow"/>
<feBlend mode="normal" in="SourceGraphic" in2="effect1_dropShadow" result="shape"/>
</filter>
</defs>
</svg>
